<svg xmlns="http://www.w3.org/2000/svg" version="1.1" xmlns:xlink="http://www.w3.org/1999/xlink" xmlns:svgjs="http://svgjs.dev/svgjs" width="1440" height="560" preserveAspectRatio="none" viewBox="0 0 1440 560"><g mask="url(&quot;#SvgjsMask1011&quot;)" fill="none"><path d="M1512 560L0 560 L0 366.75Q53.18 347.93, 72 401.1Q124.19 333.29, 192 385.48Q198.28 319.76, 264 326.05Q305.55 247.6, 384 289.15Q481.98 267.13, 504 365.11Q512.63 301.74, 576 310.36Q626.13 240.49, 696 290.61Q754.45 277.06, 768 335.51Q861.66 309.17, 888 402.83Q920.74 315.56, 1008 348.3Q1059.09 279.38, 1128 330.47Q1192.8 323.27, 1200 388.07Q1227.52 343.59, 1272 371.11Q1317.55 296.65, 1392 342.2Q1459.62 289.81, 1512 357.43z" fill="#182f5d"></path><path d="M1464 560L0 560 L0 391.24Q108.79 380.03, 120 488.82Q140.75 389.57, 240 410.31Q257.57 355.88, 312 373.45Q377.78 319.23, 432 385.01Q484.82 365.83, 504 418.65Q578.06 420.71, 576 494.77Q556.02 402.79, 648 382.82Q760.7 375.52, 768 488.22Q819.8 420.02, 888 471.83Q931.55 395.38, 1008 438.94Q1024.04 382.98, 1080 399.02Q1133.64 332.66, 1200 386.3Q1249.81 364.11, 1272 413.91Q1320.66 390.57, 1344 439.23Q1412.37 387.6, 1464 455.96z" fill="#25467d"></path><path d="M1488 560L0 560 L0 543.01Q41.75 512.76, 72 554.52Q152.51 515.03, 192 595.55Q240.55 524.1, 312 572.64Q365.92 506.56, 432 560.47Q480.55 537.02, 504 585.57Q532.82 494.39, 624 523.22Q670.86 450.08, 744 496.93Q839.75 472.68, 864 568.43Q913.81 546.24, 936 596.05Q964.8 552.85, 1008 581.65Q1030.35 532, 1080 554.34Q1111.6 465.94, 1200 497.54Q1247.72 473.26, 1272 520.99Q1290.81 467.8, 1344 486.6Q1386.94 457.54, 1416 500.48Q1497.86 510.34, 1488 592.2z" fill="#356cb1"></path></g><defs><mask id="SvgjsMask1011"><rect width="1440" height="560" fill="#ffffff"></rect></mask></defs></svg>