<svg xmlns="http://www.w3.org/2000/svg" version="1.1" xmlns:xlink="http://www.w3.org/1999/xlink" xmlns:svgjs="http://svgjs.dev/svgjs" width="1440" height="560" preserveAspectRatio="none" viewBox="0 0 1440 560"><g mask="url(&quot;#SvgjsMask1062&quot;)" fill="none"><path d="M1512 560L0 560 L0 360.42Q10.82 299.25, 72 310.07Q145.58 263.65, 192 337.24Q206.31 279.55, 264 293.85Q293.5 251.35, 336 280.85Q385.44 258.29, 408 307.72Q465.88 293.6, 480 351.48Q547.65 299.13, 600 366.79Q613.71 308.5, 672 322.21Q693.6 271.81, 744 293.41Q785.24 262.65, 816 303.9Q912.39 280.29, 936 376.69Q970.98 291.67, 1056 326.65Q1080.3 278.95, 1128 303.25Q1153.42 256.67, 1200 282.09Q1254.34 264.43, 1272 318.77Q1353 279.77, 1392 360.77Q1440.35 289.12, 1512 337.47z" fill="rgba(68, 7, 7, 1)"></path><path d="M1488 560L0 560 L0 352.83Q44.59 325.42, 72 370.01Q138.14 364.15, 144 430.29Q161.96 376.25, 216 394.21Q257.67 363.88, 288 405.54Q329.62 327.16, 408 368.78Q476.87 317.64, 528 386.51Q569.49 356, 600 397.48Q648.47 325.95, 720 374.41Q777.76 360.18, 792 417.94Q837.67 343.61, 912 389.28Q939.16 344.44, 984 371.61Q1073.17 340.78, 1104 429.95Q1145.89 351.85, 1224 393.74Q1308.55 358.28, 1344 442.83Q1373.8 400.63, 1416 430.43Q1434.69 377.13, 1488 395.82z" fill="rgba(96, 17, 28, 1)"></path><path d="M1464 560L0 560 L0 517.06Q12.22 409.27, 120 421.49Q162.65 392.14, 192 434.79Q268.33 439.12, 264 515.45Q300.18 431.63, 384 467.82Q413.64 425.46, 456 455.1Q504.84 383.94, 576 432.78Q630.3 367.08, 696 421.38Q777.52 382.9, 816 464.43Q860.4 388.83, 936 433.23Q994.41 419.64, 1008 478.06Q1059.2 409.26, 1128 460.47Q1178.3 438.77, 1200 489.07Q1202.95 420.02, 1272 422.98Q1354.92 433.9, 1344 516.82Q1371.88 424.7, 1464 452.58z" fill="rgba(158, 49, 49, 1)"></path><path d="M1464 560L0 560 L0 575.34Q24.63 479.97, 120 504.6Q191.25 455.85, 240 527.09Q294.46 509.55, 312 564Q337.83 517.83, 384 543.65Q398.9 486.55, 456 501.46Q510.83 436.29, 576 491.13Q671.02 466.15, 696 561.18Q746.44 491.62, 816 542.05Q865.62 471.66, 936 521.28Q1014.93 480.21, 1056 559.14Q1104.43 535.58, 1128 584.01Q1129.26 513.27, 1200 514.53Q1248.95 443.48, 1320 492.43Q1381.43 481.86, 1392 543.29Q1412.56 491.85, 1464 512.4z" fill="rgba(126, 19, 19, 1)"></path></g><defs><mask id="SvgjsMask1062"><rect width="1440" height="560" fill="#ffffff"></rect></mask></defs></svg>